<mxfile host="app.diagrams.net" agent="Mozilla/5.0 (X11; Linux x86_64; rv:136.0) Gecko/20100101 Firefox/136.0" version="26.1.3">
  <diagram name="Page-1" id="GqUmpZvGIh4dHvEs5y8a">
    <mxGraphModel dx="-307" dy="794" grid="1" gridSize="10" guides="1" tooltips="1" connect="1" arrows="1" fold="1" page="1" pageScale="1" pageWidth="850" pageHeight="1100" math="0" shadow="0">
      <root>
        <mxCell id="0" />
        <mxCell id="1" parent="0" />
        <mxCell id="Q4PtB8VEEmsm6MJClJGm-413" style="edgeStyle=orthogonalEdgeStyle;rounded=0;orthogonalLoop=1;jettySize=auto;html=1;entryX=0.5;entryY=0;entryDx=0;entryDy=0;endArrow=none;startFill=0;" parent="1" source="Q4PtB8VEEmsm6MJClJGm-177" target="Q4PtB8VEEmsm6MJClJGm-412" edge="1">
          <mxGeometry relative="1" as="geometry" />
        </mxCell>
        <mxCell id="Q4PtB8VEEmsm6MJClJGm-177" value="CompaÃ±ia" style="rounded=0;whiteSpace=wrap;html=1;" parent="1" vertex="1">
          <mxGeometry x="2304" y="253.00025403784434" width="160" height="60" as="geometry" />
        </mxCell>
        <mxCell id="Q4PtB8VEEmsm6MJClJGm-481" style="edgeStyle=orthogonalEdgeStyle;rounded=0;orthogonalLoop=1;jettySize=auto;html=1;entryX=0;entryY=0.5;entryDx=0;entryDy=0;endArrow=none;startFill=0;" parent="1" source="Q4PtB8VEEmsm6MJClJGm-178" target="Q4PtB8VEEmsm6MJClJGm-479" edge="1">
          <mxGeometry relative="1" as="geometry" />
        </mxCell>
        <mxCell id="Q4PtB8VEEmsm6MJClJGm-178" value="Clientes" style="rounded=0;whiteSpace=wrap;html=1;" parent="1" vertex="1">
          <mxGeometry x="2050" y="479.26025403784433" width="160" height="60" as="geometry" />
        </mxCell>
        <mxCell id="Q4PtB8VEEmsm6MJClJGm-410" style="edgeStyle=orthogonalEdgeStyle;rounded=0;orthogonalLoop=1;jettySize=auto;html=1;entryX=0;entryY=0.5;entryDx=0;entryDy=0;endArrow=none;startFill=0;" parent="1" source="Q4PtB8VEEmsm6MJClJGm-179" target="Q4PtB8VEEmsm6MJClJGm-397" edge="1">
          <mxGeometry relative="1" as="geometry" />
        </mxCell>
        <mxCell id="Q4PtB8VEEmsm6MJClJGm-411" style="edgeStyle=orthogonalEdgeStyle;rounded=0;orthogonalLoop=1;jettySize=auto;html=1;exitX=0;exitY=0.25;exitDx=0;exitDy=0;entryX=0.5;entryY=1;entryDx=0;entryDy=0;endArrow=none;startFill=0;" parent="1" source="Q4PtB8VEEmsm6MJClJGm-179" target="Q4PtB8VEEmsm6MJClJGm-412" edge="1">
          <mxGeometry relative="1" as="geometry">
            <mxPoint x="2380" y="495" as="targetPoint" />
          </mxGeometry>
        </mxCell>
        <mxCell id="Q4PtB8VEEmsm6MJClJGm-441" style="edgeStyle=orthogonalEdgeStyle;rounded=0;orthogonalLoop=1;jettySize=auto;html=1;exitX=0;exitY=0.75;exitDx=0;exitDy=0;endArrow=none;endFill=1;startFill=0;" parent="1" source="Q4PtB8VEEmsm6MJClJGm-179" edge="1">
          <mxGeometry relative="1" as="geometry">
            <mxPoint x="2480" y="660" as="targetPoint" />
          </mxGeometry>
        </mxCell>
        <mxCell id="Q4PtB8VEEmsm6MJClJGm-475" style="edgeStyle=orthogonalEdgeStyle;rounded=0;orthogonalLoop=1;jettySize=auto;html=1;exitX=1;exitY=0.75;exitDx=0;exitDy=0;entryX=0.5;entryY=0;entryDx=0;entryDy=0;endArrow=none;startFill=0;" parent="1" source="Q4PtB8VEEmsm6MJClJGm-179" target="Q4PtB8VEEmsm6MJClJGm-472" edge="1">
          <mxGeometry relative="1" as="geometry" />
        </mxCell>
        <mxCell id="Q4PtB8VEEmsm6MJClJGm-480" style="edgeStyle=orthogonalEdgeStyle;rounded=0;orthogonalLoop=1;jettySize=auto;html=1;entryX=1;entryY=0.5;entryDx=0;entryDy=0;endArrow=none;startFill=0;" parent="1" source="Q4PtB8VEEmsm6MJClJGm-179" target="Q4PtB8VEEmsm6MJClJGm-479" edge="1">
          <mxGeometry relative="1" as="geometry" />
        </mxCell>
        <mxCell id="Q4PtB8VEEmsm6MJClJGm-179" value="Polizas" style="rounded=0;whiteSpace=wrap;html=1;" parent="1" vertex="1">
          <mxGeometry x="2521" y="479.5802540378443" width="160" height="60" as="geometry" />
        </mxCell>
        <mxCell id="Q4PtB8VEEmsm6MJClJGm-181" value="" style="group" parent="1" vertex="1" connectable="0">
          <mxGeometry x="2328" y="225.00152422706628" width="8" height="28" as="geometry" />
        </mxCell>
        <mxCell id="Q4PtB8VEEmsm6MJClJGm-182" value="" style="ellipse;whiteSpace=wrap;html=1;aspect=fixed;fillColor=light-dark(#FFFFFF,#FFFFFF);" parent="Q4PtB8VEEmsm6MJClJGm-181" vertex="1">
          <mxGeometry width="8" height="8" as="geometry" />
        </mxCell>
        <mxCell id="Q4PtB8VEEmsm6MJClJGm-183" style="edgeStyle=orthogonalEdgeStyle;rounded=0;orthogonalLoop=1;jettySize=auto;html=1;endArrow=none;startFill=0;" parent="Q4PtB8VEEmsm6MJClJGm-181" edge="1">
          <mxGeometry relative="1" as="geometry">
            <mxPoint x="4" y="28" as="targetPoint" />
            <mxPoint x="4" y="8" as="sourcePoint" />
          </mxGeometry>
        </mxCell>
        <mxCell id="Q4PtB8VEEmsm6MJClJGm-184" value="&lt;font style=&quot;font-size: 8px;&quot;&gt;nombre&lt;/font&gt;" style="text;html=1;align=center;verticalAlign=middle;resizable=0;points=[];autosize=1;strokeColor=none;fillColor=none;rotation=-60;" parent="1" vertex="1">
          <mxGeometry x="2310" y="192.00152422706637" width="50" height="30" as="geometry" />
        </mxCell>
        <mxCell id="Q4PtB8VEEmsm6MJClJGm-185" value="" style="group" parent="1" vertex="1" connectable="0">
          <mxGeometry x="2348" y="225.00152422706628" width="8" height="28" as="geometry" />
        </mxCell>
        <mxCell id="Q4PtB8VEEmsm6MJClJGm-186" value="" style="ellipse;whiteSpace=wrap;html=1;aspect=fixed;" parent="Q4PtB8VEEmsm6MJClJGm-185" vertex="1">
          <mxGeometry width="8" height="8" as="geometry" />
        </mxCell>
        <mxCell id="Q4PtB8VEEmsm6MJClJGm-187" style="edgeStyle=orthogonalEdgeStyle;rounded=0;orthogonalLoop=1;jettySize=auto;html=1;endArrow=none;startFill=0;" parent="Q4PtB8VEEmsm6MJClJGm-185" edge="1">
          <mxGeometry relative="1" as="geometry">
            <mxPoint x="4" y="28" as="targetPoint" />
            <mxPoint x="4" y="8" as="sourcePoint" />
          </mxGeometry>
        </mxCell>
        <mxCell id="Q4PtB8VEEmsm6MJClJGm-188" value="&lt;font style=&quot;font-size: 8px;&quot;&gt;cuit&lt;/font&gt;" style="text;html=1;align=center;verticalAlign=middle;resizable=0;points=[];autosize=1;strokeColor=none;fillColor=none;rotation=-60;" parent="1" vertex="1">
          <mxGeometry x="2334" y="195.54152422706636" width="40" height="30" as="geometry" />
        </mxCell>
        <mxCell id="Q4PtB8VEEmsm6MJClJGm-193" value="" style="group" parent="1" vertex="1" connectable="0">
          <mxGeometry x="2368" y="225.00152422706628" width="8" height="28" as="geometry" />
        </mxCell>
        <mxCell id="Q4PtB8VEEmsm6MJClJGm-194" value="" style="ellipse;whiteSpace=wrap;html=1;aspect=fixed;" parent="Q4PtB8VEEmsm6MJClJGm-193" vertex="1">
          <mxGeometry width="8" height="8" as="geometry" />
        </mxCell>
        <mxCell id="Q4PtB8VEEmsm6MJClJGm-195" style="edgeStyle=orthogonalEdgeStyle;rounded=0;orthogonalLoop=1;jettySize=auto;html=1;endArrow=none;startFill=0;" parent="Q4PtB8VEEmsm6MJClJGm-193" edge="1">
          <mxGeometry relative="1" as="geometry">
            <mxPoint x="4" y="28" as="targetPoint" />
            <mxPoint x="4" y="8" as="sourcePoint" />
          </mxGeometry>
        </mxCell>
        <mxCell id="Q4PtB8VEEmsm6MJClJGm-196" value="&lt;font style=&quot;font-size: 8px;&quot;&gt;telefono(1,n)&lt;/font&gt;" style="text;html=1;align=center;verticalAlign=middle;resizable=0;points=[];autosize=1;strokeColor=none;fillColor=none;rotation=-60;" parent="1" vertex="1">
          <mxGeometry x="2339" y="175.54152422706636" width="90" height="30" as="geometry" />
        </mxCell>
        <mxCell id="Q4PtB8VEEmsm6MJClJGm-197" value="" style="group" parent="1" vertex="1" connectable="0">
          <mxGeometry x="2388" y="225.00152422706628" width="8" height="28" as="geometry" />
        </mxCell>
        <mxCell id="Q4PtB8VEEmsm6MJClJGm-198" value="" style="ellipse;whiteSpace=wrap;html=1;aspect=fixed;" parent="Q4PtB8VEEmsm6MJClJGm-197" vertex="1">
          <mxGeometry width="8" height="8" as="geometry" />
        </mxCell>
        <mxCell id="Q4PtB8VEEmsm6MJClJGm-199" style="edgeStyle=orthogonalEdgeStyle;rounded=0;orthogonalLoop=1;jettySize=auto;html=1;endArrow=none;startFill=0;" parent="Q4PtB8VEEmsm6MJClJGm-197" edge="1">
          <mxGeometry relative="1" as="geometry">
            <mxPoint x="4" y="28" as="targetPoint" />
            <mxPoint x="4" y="8" as="sourcePoint" />
          </mxGeometry>
        </mxCell>
        <mxCell id="Q4PtB8VEEmsm6MJClJGm-200" value="&lt;font style=&quot;font-size: 8px;&quot;&gt;mail(1,n)&lt;/font&gt;" style="text;html=1;align=center;verticalAlign=middle;resizable=0;points=[];autosize=1;strokeColor=none;fillColor=none;rotation=-60;" parent="1" vertex="1">
          <mxGeometry x="2365" y="183.54152422706636" width="70" height="30" as="geometry" />
        </mxCell>
        <mxCell id="Q4PtB8VEEmsm6MJClJGm-201" value="" style="group" parent="1" vertex="1" connectable="0">
          <mxGeometry x="2408" y="225.00152422706628" width="8" height="28" as="geometry" />
        </mxCell>
        <mxCell id="Q4PtB8VEEmsm6MJClJGm-202" value="" style="ellipse;whiteSpace=wrap;html=1;aspect=fixed;" parent="Q4PtB8VEEmsm6MJClJGm-201" vertex="1">
          <mxGeometry width="8" height="8" as="geometry" />
        </mxCell>
        <mxCell id="Q4PtB8VEEmsm6MJClJGm-203" style="edgeStyle=orthogonalEdgeStyle;rounded=0;orthogonalLoop=1;jettySize=auto;html=1;endArrow=none;startFill=0;" parent="Q4PtB8VEEmsm6MJClJGm-201" edge="1">
          <mxGeometry relative="1" as="geometry">
            <mxPoint x="4" y="28" as="targetPoint" />
            <mxPoint x="4" y="8" as="sourcePoint" />
          </mxGeometry>
        </mxCell>
        <mxCell id="Q4PtB8VEEmsm6MJClJGm-204" value="&lt;font style=&quot;font-size: 8px;&quot;&gt;comision&lt;/font&gt;" style="text;html=1;align=center;verticalAlign=middle;resizable=0;points=[];autosize=1;strokeColor=none;fillColor=none;rotation=-60;" parent="1" vertex="1">
          <mxGeometry x="2388" y="186.54152422706636" width="60" height="30" as="geometry" />
        </mxCell>
        <mxCell id="Q4PtB8VEEmsm6MJClJGm-209" value="" style="group" parent="1" vertex="1" connectable="0">
          <mxGeometry x="2106.5" y="451.26152422706633" width="8" height="28" as="geometry" />
        </mxCell>
        <mxCell id="Q4PtB8VEEmsm6MJClJGm-210" value="" style="ellipse;whiteSpace=wrap;html=1;aspect=fixed;fillColor=light-dark(#FFFFFF,#FFFFFF);" parent="Q4PtB8VEEmsm6MJClJGm-209" vertex="1">
          <mxGeometry width="8" height="8" as="geometry" />
        </mxCell>
        <mxCell id="Q4PtB8VEEmsm6MJClJGm-211" style="edgeStyle=orthogonalEdgeStyle;rounded=0;orthogonalLoop=1;jettySize=auto;html=1;endArrow=none;startFill=0;" parent="Q4PtB8VEEmsm6MJClJGm-209" edge="1">
          <mxGeometry relative="1" as="geometry">
            <mxPoint x="4" y="28" as="targetPoint" />
            <mxPoint x="4" y="8" as="sourcePoint" />
          </mxGeometry>
        </mxCell>
        <mxCell id="Q4PtB8VEEmsm6MJClJGm-212" value="&lt;font style=&quot;font-size: 8px;&quot;&gt;id&lt;/font&gt;" style="text;html=1;align=center;verticalAlign=middle;resizable=0;points=[];autosize=1;strokeColor=none;fillColor=none;rotation=-60;" parent="1" vertex="1">
          <mxGeometry x="2095" y="424.80152422706635" width="30" height="30" as="geometry" />
        </mxCell>
        <mxCell id="Q4PtB8VEEmsm6MJClJGm-213" value="" style="group" parent="1" vertex="1" connectable="0">
          <mxGeometry x="2125.5" y="451.26152422706633" width="8" height="28" as="geometry" />
        </mxCell>
        <mxCell id="Q4PtB8VEEmsm6MJClJGm-214" value="" style="ellipse;whiteSpace=wrap;html=1;aspect=fixed;" parent="Q4PtB8VEEmsm6MJClJGm-213" vertex="1">
          <mxGeometry width="8" height="8" as="geometry" />
        </mxCell>
        <mxCell id="Q4PtB8VEEmsm6MJClJGm-215" style="edgeStyle=orthogonalEdgeStyle;rounded=0;orthogonalLoop=1;jettySize=auto;html=1;endArrow=none;startFill=0;" parent="Q4PtB8VEEmsm6MJClJGm-213" edge="1">
          <mxGeometry relative="1" as="geometry">
            <mxPoint x="4" y="28" as="targetPoint" />
            <mxPoint x="4" y="8" as="sourcePoint" />
          </mxGeometry>
        </mxCell>
        <mxCell id="Q4PtB8VEEmsm6MJClJGm-216" value="&lt;font style=&quot;font-size: 8px;&quot;&gt;direccion&lt;/font&gt;" style="text;html=1;align=center;verticalAlign=middle;resizable=0;points=[];autosize=1;strokeColor=none;fillColor=none;rotation=-60;" parent="1" vertex="1">
          <mxGeometry x="2102" y="409.80152422706635" width="70" height="30" as="geometry" />
        </mxCell>
        <mxCell id="Q4PtB8VEEmsm6MJClJGm-217" value="" style="group" parent="1" vertex="1" connectable="0">
          <mxGeometry x="2145.5" y="451.26152422706633" width="8" height="28" as="geometry" />
        </mxCell>
        <mxCell id="Q4PtB8VEEmsm6MJClJGm-218" value="" style="ellipse;whiteSpace=wrap;html=1;aspect=fixed;" parent="Q4PtB8VEEmsm6MJClJGm-217" vertex="1">
          <mxGeometry width="8" height="8" as="geometry" />
        </mxCell>
        <mxCell id="Q4PtB8VEEmsm6MJClJGm-219" style="edgeStyle=orthogonalEdgeStyle;rounded=0;orthogonalLoop=1;jettySize=auto;html=1;endArrow=none;startFill=0;" parent="Q4PtB8VEEmsm6MJClJGm-217" edge="1">
          <mxGeometry relative="1" as="geometry">
            <mxPoint x="4" y="28" as="targetPoint" />
            <mxPoint x="4" y="8" as="sourcePoint" />
          </mxGeometry>
        </mxCell>
        <mxCell id="Q4PtB8VEEmsm6MJClJGm-220" value="&lt;font style=&quot;font-size: 8px;&quot;&gt;telefono&lt;/font&gt;" style="text;html=1;align=center;verticalAlign=middle;resizable=0;points=[];autosize=1;strokeColor=none;fillColor=none;rotation=-60;" parent="1" vertex="1">
          <mxGeometry x="2126.5" y="411.80152422706635" width="60" height="30" as="geometry" />
        </mxCell>
        <mxCell id="Q4PtB8VEEmsm6MJClJGm-233" value="Persona_Fisica" style="rounded=0;whiteSpace=wrap;html=1;" parent="1" vertex="1">
          <mxGeometry x="1930" y="639.8002540378443" width="160" height="60" as="geometry" />
        </mxCell>
        <mxCell id="Q4PtB8VEEmsm6MJClJGm-234" value="Persona_Juridica" style="rounded=0;whiteSpace=wrap;html=1;" parent="1" vertex="1">
          <mxGeometry x="2170" y="639.8002540378443" width="160" height="60" as="geometry" />
        </mxCell>
        <mxCell id="Q4PtB8VEEmsm6MJClJGm-235" value="" style="endArrow=none;startArrow=none;html=1;rounded=0;exitX=0.5;exitY=0;exitDx=0;exitDy=0;startFill=0;" parent="1" source="Q4PtB8VEEmsm6MJClJGm-233" edge="1">
          <mxGeometry width="50" height="50" relative="1" as="geometry">
            <mxPoint x="2020" y="638.8" as="sourcePoint" />
            <mxPoint x="2250" y="639.8" as="targetPoint" />
            <Array as="points">
              <mxPoint x="2010" y="599.8" />
              <mxPoint x="2140" y="600.2602540378443" />
              <mxPoint x="2250" y="599.8" />
            </Array>
          </mxGeometry>
        </mxCell>
        <mxCell id="Q4PtB8VEEmsm6MJClJGm-236" value="" style="endArrow=classic;html=1;rounded=0;entryX=0.5;entryY=1;entryDx=0;entryDy=0;endFill=1;" parent="1" edge="1">
          <mxGeometry width="50" height="50" relative="1" as="geometry">
            <mxPoint x="2130" y="600.2602540378443" as="sourcePoint" />
            <mxPoint x="2130" y="540.8" as="targetPoint" />
          </mxGeometry>
        </mxCell>
        <mxCell id="Q4PtB8VEEmsm6MJClJGm-237" value="(T,E)" style="text;html=1;align=center;verticalAlign=middle;resizable=0;points=[];autosize=1;strokeColor=none;fillColor=none;" parent="1" vertex="1">
          <mxGeometry x="2124" y="550.2602540378443" width="60" height="30" as="geometry" />
        </mxCell>
        <mxCell id="Q4PtB8VEEmsm6MJClJGm-238" value="" style="group" parent="1" vertex="1" connectable="0">
          <mxGeometry x="1946.5" y="611.7215242270663" width="8" height="28" as="geometry" />
        </mxCell>
        <mxCell id="Q4PtB8VEEmsm6MJClJGm-239" value="" style="ellipse;whiteSpace=wrap;html=1;aspect=fixed;fillColor=light-dark(#FFFFFF,#FFFFFF);" parent="Q4PtB8VEEmsm6MJClJGm-238" vertex="1">
          <mxGeometry width="8" height="8" as="geometry" />
        </mxCell>
        <mxCell id="Q4PtB8VEEmsm6MJClJGm-240" style="edgeStyle=orthogonalEdgeStyle;rounded=0;orthogonalLoop=1;jettySize=auto;html=1;endArrow=none;startFill=0;" parent="Q4PtB8VEEmsm6MJClJGm-238" edge="1">
          <mxGeometry relative="1" as="geometry">
            <mxPoint x="4" y="28" as="targetPoint" />
            <mxPoint x="4" y="8" as="sourcePoint" />
          </mxGeometry>
        </mxCell>
        <mxCell id="Q4PtB8VEEmsm6MJClJGm-241" value="&lt;font style=&quot;font-size: 8px;&quot;&gt;dni&lt;/font&gt;" style="text;html=1;align=center;verticalAlign=middle;resizable=0;points=[];autosize=1;strokeColor=none;fillColor=none;rotation=-60;" parent="1" vertex="1">
          <mxGeometry x="1930" y="583.0015242270663" width="40" height="30" as="geometry" />
        </mxCell>
        <mxCell id="Q4PtB8VEEmsm6MJClJGm-242" value="" style="group" parent="1" vertex="1" connectable="0">
          <mxGeometry x="1965.5" y="611.7215242270663" width="8" height="28" as="geometry" />
        </mxCell>
        <mxCell id="Q4PtB8VEEmsm6MJClJGm-243" value="" style="ellipse;whiteSpace=wrap;html=1;aspect=fixed;" parent="Q4PtB8VEEmsm6MJClJGm-242" vertex="1">
          <mxGeometry width="8" height="8" as="geometry" />
        </mxCell>
        <mxCell id="Q4PtB8VEEmsm6MJClJGm-244" style="edgeStyle=orthogonalEdgeStyle;rounded=0;orthogonalLoop=1;jettySize=auto;html=1;endArrow=none;startFill=0;" parent="Q4PtB8VEEmsm6MJClJGm-242" edge="1">
          <mxGeometry relative="1" as="geometry">
            <mxPoint x="4" y="28" as="targetPoint" />
            <mxPoint x="4" y="8" as="sourcePoint" />
          </mxGeometry>
        </mxCell>
        <mxCell id="Q4PtB8VEEmsm6MJClJGm-245" value="&lt;font style=&quot;font-size: 8px;&quot;&gt;apellido&lt;/font&gt;" style="text;html=1;align=center;verticalAlign=middle;resizable=0;points=[];autosize=1;strokeColor=none;fillColor=none;rotation=-60;" parent="1" vertex="1">
          <mxGeometry x="1946" y="572.8015242270662" width="60" height="30" as="geometry" />
        </mxCell>
        <mxCell id="Q4PtB8VEEmsm6MJClJGm-246" value="" style="group" parent="1" vertex="1" connectable="0">
          <mxGeometry x="1985.5" y="611.7215242270663" width="8" height="28" as="geometry" />
        </mxCell>
        <mxCell id="Q4PtB8VEEmsm6MJClJGm-247" value="" style="ellipse;whiteSpace=wrap;html=1;aspect=fixed;" parent="Q4PtB8VEEmsm6MJClJGm-246" vertex="1">
          <mxGeometry width="8" height="8" as="geometry" />
        </mxCell>
        <mxCell id="Q4PtB8VEEmsm6MJClJGm-248" style="edgeStyle=orthogonalEdgeStyle;rounded=0;orthogonalLoop=1;jettySize=auto;html=1;endArrow=none;startFill=0;" parent="Q4PtB8VEEmsm6MJClJGm-246" edge="1">
          <mxGeometry relative="1" as="geometry">
            <mxPoint x="4" y="28" as="targetPoint" />
            <mxPoint x="4" y="8" as="sourcePoint" />
          </mxGeometry>
        </mxCell>
        <mxCell id="Q4PtB8VEEmsm6MJClJGm-249" value="&lt;font style=&quot;font-size: 8px;&quot;&gt;nombre&lt;/font&gt;" style="text;html=1;align=center;verticalAlign=middle;resizable=0;points=[];autosize=1;strokeColor=none;fillColor=none;rotation=-60;" parent="1" vertex="1">
          <mxGeometry x="1969" y="576.8015242270662" width="50" height="30" as="geometry" />
        </mxCell>
        <mxCell id="Q4PtB8VEEmsm6MJClJGm-250" value="" style="group" parent="1" vertex="1" connectable="0">
          <mxGeometry x="2276" y="611.7215242270663" width="8" height="28" as="geometry" />
        </mxCell>
        <mxCell id="Q4PtB8VEEmsm6MJClJGm-251" value="" style="ellipse;whiteSpace=wrap;html=1;aspect=fixed;fillColor=light-dark(#FFFFFF,#FFFFFF);" parent="Q4PtB8VEEmsm6MJClJGm-250" vertex="1">
          <mxGeometry width="8" height="8" as="geometry" />
        </mxCell>
        <mxCell id="Q4PtB8VEEmsm6MJClJGm-252" style="edgeStyle=orthogonalEdgeStyle;rounded=0;orthogonalLoop=1;jettySize=auto;html=1;endArrow=none;startFill=0;" parent="Q4PtB8VEEmsm6MJClJGm-250" edge="1">
          <mxGeometry relative="1" as="geometry">
            <mxPoint x="4" y="28" as="targetPoint" />
            <mxPoint x="4" y="8" as="sourcePoint" />
          </mxGeometry>
        </mxCell>
        <mxCell id="Q4PtB8VEEmsm6MJClJGm-253" value="&lt;font style=&quot;font-size: 8px;&quot;&gt;cuit&lt;/font&gt;" style="text;html=1;align=center;verticalAlign=middle;resizable=0;points=[];autosize=1;strokeColor=none;fillColor=none;rotation=-60;" parent="1" vertex="1">
          <mxGeometry x="2261" y="582.8015242270662" width="40" height="30" as="geometry" />
        </mxCell>
        <mxCell id="Q4PtB8VEEmsm6MJClJGm-254" value="" style="group" parent="1" vertex="1" connectable="0">
          <mxGeometry x="2296" y="611.7215242270663" width="8" height="28" as="geometry" />
        </mxCell>
        <mxCell id="Q4PtB8VEEmsm6MJClJGm-255" value="" style="ellipse;whiteSpace=wrap;html=1;aspect=fixed;fillColor=light-dark(#FFFFFF,#FFFFFF);" parent="Q4PtB8VEEmsm6MJClJGm-254" vertex="1">
          <mxGeometry width="8" height="8" as="geometry" />
        </mxCell>
        <mxCell id="Q4PtB8VEEmsm6MJClJGm-256" style="edgeStyle=orthogonalEdgeStyle;rounded=0;orthogonalLoop=1;jettySize=auto;html=1;endArrow=none;startFill=0;" parent="Q4PtB8VEEmsm6MJClJGm-254" edge="1">
          <mxGeometry relative="1" as="geometry">
            <mxPoint x="4" y="28" as="targetPoint" />
            <mxPoint x="4" y="8" as="sourcePoint" />
          </mxGeometry>
        </mxCell>
        <mxCell id="Q4PtB8VEEmsm6MJClJGm-257" value="&lt;font style=&quot;font-size: 8px;&quot;&gt;razon_social&lt;/font&gt;" style="text;html=1;align=center;verticalAlign=middle;resizable=0;points=[];autosize=1;strokeColor=none;fillColor=none;rotation=-60;" parent="1" vertex="1">
          <mxGeometry x="2270" y="565.8015242270662" width="80" height="30" as="geometry" />
        </mxCell>
        <mxCell id="Q4PtB8VEEmsm6MJClJGm-262" value="" style="endArrow=none;html=1;rounded=0;" parent="1" edge="1">
          <mxGeometry width="50" height="50" relative="1" as="geometry">
            <mxPoint x="2431" y="252.99999999999994" as="sourcePoint" />
            <mxPoint x="2441" y="233.96025403784432" as="targetPoint" />
          </mxGeometry>
        </mxCell>
        <mxCell id="Q4PtB8VEEmsm6MJClJGm-263" value="&lt;font style=&quot;font-size: 10px;&quot;&gt;direcciÃ³n&lt;/font&gt;" style="ellipse;whiteSpace=wrap;html=1;" parent="1" vertex="1">
          <mxGeometry x="2423" y="214.00025403784434" width="76" height="24" as="geometry" />
        </mxCell>
        <mxCell id="Q4PtB8VEEmsm6MJClJGm-264" value="" style="endArrow=none;html=1;rounded=0;exitX=0.75;exitY=0;exitDx=0;exitDy=0;" parent="1" edge="1">
          <mxGeometry width="50" height="50" relative="1" as="geometry">
            <mxPoint x="2454" y="214.00025403784434" as="sourcePoint" />
            <mxPoint x="2467" y="191.00025403784434" as="targetPoint" />
          </mxGeometry>
        </mxCell>
        <mxCell id="Q4PtB8VEEmsm6MJClJGm-265" value="" style="endArrow=none;html=1;rounded=0;exitX=0.75;exitY=0;exitDx=0;exitDy=0;" parent="1" edge="1">
          <mxGeometry width="50" height="50" relative="1" as="geometry">
            <mxPoint x="2484" y="217.00025403784434" as="sourcePoint" />
            <mxPoint x="2494" y="204.00025403784434" as="targetPoint" />
          </mxGeometry>
        </mxCell>
        <mxCell id="Q4PtB8VEEmsm6MJClJGm-266" value="" style="endArrow=none;html=1;rounded=0;exitX=1;exitY=0.5;exitDx=0;exitDy=0;" parent="1" source="Q4PtB8VEEmsm6MJClJGm-263" edge="1">
          <mxGeometry width="50" height="50" relative="1" as="geometry">
            <mxPoint x="2499" y="238.00025403784434" as="sourcePoint" />
            <mxPoint x="2514" y="226.00025403784434" as="targetPoint" />
          </mxGeometry>
        </mxCell>
        <mxCell id="Q4PtB8VEEmsm6MJClJGm-267" value="" style="endArrow=none;html=1;rounded=0;entryX=1;entryY=1;entryDx=0;entryDy=0;" parent="1" target="Q4PtB8VEEmsm6MJClJGm-263" edge="1">
          <mxGeometry width="50" height="50" relative="1" as="geometry">
            <mxPoint x="2504" y="244.00025403784434" as="sourcePoint" />
            <mxPoint x="2494" y="224.00025403784434" as="targetPoint" />
          </mxGeometry>
        </mxCell>
        <mxCell id="Q4PtB8VEEmsm6MJClJGm-268" value="" style="group" parent="1" vertex="1" connectable="0">
          <mxGeometry x="2465" y="184.00152422706628" width="8" height="28" as="geometry" />
        </mxCell>
        <mxCell id="Q4PtB8VEEmsm6MJClJGm-269" value="" style="ellipse;whiteSpace=wrap;html=1;aspect=fixed;" parent="Q4PtB8VEEmsm6MJClJGm-268" vertex="1">
          <mxGeometry width="8" height="8" as="geometry" />
        </mxCell>
        <mxCell id="Q4PtB8VEEmsm6MJClJGm-270" value="" style="group" parent="1" vertex="1" connectable="0">
          <mxGeometry x="2492" y="197.00152422706628" width="8" height="28" as="geometry" />
        </mxCell>
        <mxCell id="Q4PtB8VEEmsm6MJClJGm-271" value="" style="ellipse;whiteSpace=wrap;html=1;aspect=fixed;" parent="Q4PtB8VEEmsm6MJClJGm-270" vertex="1">
          <mxGeometry width="8" height="8" as="geometry" />
        </mxCell>
        <mxCell id="Q4PtB8VEEmsm6MJClJGm-272" value="" style="group" parent="1" vertex="1" connectable="0">
          <mxGeometry x="2513" y="222.00152422706628" width="8" height="28" as="geometry" />
        </mxCell>
        <mxCell id="Q4PtB8VEEmsm6MJClJGm-273" value="" style="ellipse;whiteSpace=wrap;html=1;aspect=fixed;" parent="Q4PtB8VEEmsm6MJClJGm-272" vertex="1">
          <mxGeometry width="8" height="8" as="geometry" />
        </mxCell>
        <mxCell id="Q4PtB8VEEmsm6MJClJGm-274" value="" style="group" parent="1" vertex="1" connectable="0">
          <mxGeometry x="2502" y="241.00152422706628" width="8" height="28" as="geometry" />
        </mxCell>
        <mxCell id="Q4PtB8VEEmsm6MJClJGm-275" value="" style="ellipse;whiteSpace=wrap;html=1;aspect=fixed;" parent="Q4PtB8VEEmsm6MJClJGm-274" vertex="1">
          <mxGeometry width="8" height="8" as="geometry" />
        </mxCell>
        <mxCell id="Q4PtB8VEEmsm6MJClJGm-276" value="&lt;font style=&quot;font-size: 8px;&quot;&gt;calle&lt;/font&gt;" style="text;html=1;align=center;verticalAlign=middle;resizable=0;points=[];autosize=1;strokeColor=none;fillColor=none;rotation=0;" parent="1" vertex="1">
          <mxGeometry x="2463" y="170.00152422706628" width="50" height="30" as="geometry" />
        </mxCell>
        <mxCell id="Q4PtB8VEEmsm6MJClJGm-277" value="&lt;font style=&quot;font-size: 8px;&quot;&gt;numero&lt;/font&gt;" style="text;html=1;align=center;verticalAlign=middle;resizable=0;points=[];autosize=1;strokeColor=none;fillColor=none;rotation=0;" parent="1" vertex="1">
          <mxGeometry x="2492" y="183.00152422706628" width="50" height="30" as="geometry" />
        </mxCell>
        <mxCell id="Q4PtB8VEEmsm6MJClJGm-278" value="&lt;font style=&quot;font-size: 8px;&quot;&gt;piso(0,1)&lt;/font&gt;" style="text;html=1;align=center;verticalAlign=middle;resizable=0;points=[];autosize=1;strokeColor=none;fillColor=none;rotation=0;" parent="1" vertex="1">
          <mxGeometry x="2511" y="208.00152422706628" width="70" height="30" as="geometry" />
        </mxCell>
        <mxCell id="Q4PtB8VEEmsm6MJClJGm-279" value="&lt;font style=&quot;font-size: 8px;&quot;&gt;dpto(0,1)&lt;/font&gt;" style="text;html=1;align=center;verticalAlign=middle;resizable=0;points=[];autosize=1;strokeColor=none;fillColor=none;rotation=0;" parent="1" vertex="1">
          <mxGeometry x="2501" y="227.80152422706624" width="70" height="30" as="geometry" />
        </mxCell>
        <mxCell id="Q4PtB8VEEmsm6MJClJGm-280" value="" style="group" parent="1" vertex="1" connectable="0">
          <mxGeometry x="2526.5" y="451.7915242270663" width="8" height="28" as="geometry" />
        </mxCell>
        <mxCell id="Q4PtB8VEEmsm6MJClJGm-281" value="" style="ellipse;whiteSpace=wrap;html=1;aspect=fixed;fillColor=light-dark(#FFFFFF,#FFFFFF);" parent="Q4PtB8VEEmsm6MJClJGm-280" vertex="1">
          <mxGeometry width="8" height="8" as="geometry" />
        </mxCell>
        <mxCell id="Q4PtB8VEEmsm6MJClJGm-282" style="edgeStyle=orthogonalEdgeStyle;rounded=0;orthogonalLoop=1;jettySize=auto;html=1;endArrow=none;startFill=0;" parent="Q4PtB8VEEmsm6MJClJGm-280" edge="1">
          <mxGeometry relative="1" as="geometry">
            <mxPoint x="4" y="28" as="targetPoint" />
            <mxPoint x="4" y="8" as="sourcePoint" />
          </mxGeometry>
        </mxCell>
        <mxCell id="Q4PtB8VEEmsm6MJClJGm-283" value="&lt;font style=&quot;font-size: 8px;&quot;&gt;numero&lt;/font&gt;" style="text;html=1;align=center;verticalAlign=middle;resizable=0;points=[];autosize=1;strokeColor=none;fillColor=none;rotation=-60;" parent="1" vertex="1">
          <mxGeometry x="2510" y="419.3315242270663" width="50" height="30" as="geometry" />
        </mxCell>
        <mxCell id="Q4PtB8VEEmsm6MJClJGm-285" value="" style="group" parent="1" vertex="1" connectable="0">
          <mxGeometry x="2546.5" y="451.25152422706634" width="8" height="28" as="geometry" />
        </mxCell>
        <mxCell id="Q4PtB8VEEmsm6MJClJGm-286" value="" style="ellipse;whiteSpace=wrap;html=1;aspect=fixed;fillColor=light-dark(#FFFFFF,transparent);" parent="Q4PtB8VEEmsm6MJClJGm-285" vertex="1">
          <mxGeometry width="8" height="8" as="geometry" />
        </mxCell>
        <mxCell id="Q4PtB8VEEmsm6MJClJGm-287" style="edgeStyle=orthogonalEdgeStyle;rounded=0;orthogonalLoop=1;jettySize=auto;html=1;endArrow=none;startFill=0;" parent="Q4PtB8VEEmsm6MJClJGm-285" edge="1">
          <mxGeometry relative="1" as="geometry">
            <mxPoint x="4" y="28" as="targetPoint" />
            <mxPoint x="4" y="8" as="sourcePoint" />
          </mxGeometry>
        </mxCell>
        <mxCell id="Q4PtB8VEEmsm6MJClJGm-288" value="&lt;font style=&quot;font-size: 8px;&quot;&gt;monto&lt;/font&gt;" style="text;html=1;align=center;verticalAlign=middle;resizable=0;points=[];autosize=1;strokeColor=none;fillColor=none;rotation=-60;" parent="1" vertex="1">
          <mxGeometry x="2529" y="420.33152422706627" width="50" height="30" as="geometry" />
        </mxCell>
        <mxCell id="Q4PtB8VEEmsm6MJClJGm-289" value="" style="group" parent="1" vertex="1" connectable="0">
          <mxGeometry x="2566.5" y="451.25152422706634" width="8" height="28" as="geometry" />
        </mxCell>
        <mxCell id="Q4PtB8VEEmsm6MJClJGm-290" value="" style="ellipse;whiteSpace=wrap;html=1;aspect=fixed;" parent="Q4PtB8VEEmsm6MJClJGm-289" vertex="1">
          <mxGeometry width="8" height="8" as="geometry" />
        </mxCell>
        <mxCell id="Q4PtB8VEEmsm6MJClJGm-291" style="edgeStyle=orthogonalEdgeStyle;rounded=0;orthogonalLoop=1;jettySize=auto;html=1;endArrow=none;startFill=0;" parent="Q4PtB8VEEmsm6MJClJGm-289" edge="1">
          <mxGeometry relative="1" as="geometry">
            <mxPoint x="4" y="28" as="targetPoint" />
            <mxPoint x="4" y="8" as="sourcePoint" />
          </mxGeometry>
        </mxCell>
        <mxCell id="Q4PtB8VEEmsm6MJClJGm-293" value="" style="group" parent="1" vertex="1" connectable="0">
          <mxGeometry x="2586.5" y="451.25152422706634" width="8" height="28" as="geometry" />
        </mxCell>
        <mxCell id="Q4PtB8VEEmsm6MJClJGm-294" value="" style="ellipse;whiteSpace=wrap;html=1;aspect=fixed;" parent="Q4PtB8VEEmsm6MJClJGm-293" vertex="1">
          <mxGeometry width="8" height="8" as="geometry" />
        </mxCell>
        <mxCell id="Q4PtB8VEEmsm6MJClJGm-295" style="edgeStyle=orthogonalEdgeStyle;rounded=0;orthogonalLoop=1;jettySize=auto;html=1;endArrow=none;startFill=0;" parent="Q4PtB8VEEmsm6MJClJGm-293" edge="1">
          <mxGeometry relative="1" as="geometry">
            <mxPoint x="4" y="28" as="targetPoint" />
            <mxPoint x="4" y="8" as="sourcePoint" />
          </mxGeometry>
        </mxCell>
        <mxCell id="Q4PtB8VEEmsm6MJClJGm-296" value="&lt;font style=&quot;font-size: 8px;&quot;&gt;franquicia(0,1)&lt;/font&gt;" style="text;html=1;align=center;verticalAlign=middle;resizable=0;points=[];autosize=1;strokeColor=none;fillColor=none;rotation=-60;" parent="1" vertex="1">
          <mxGeometry x="2535" y="400.1215242270663" width="100" height="30" as="geometry" />
        </mxCell>
        <mxCell id="Q4PtB8VEEmsm6MJClJGm-299" value="" style="endArrow=none;html=1;rounded=0;entryX=0;entryY=1;entryDx=0;entryDy=0;" parent="1" target="Q4PtB8VEEmsm6MJClJGm-300" edge="1">
          <mxGeometry width="50" height="50" relative="1" as="geometry">
            <mxPoint x="2631" y="479.62" as="sourcePoint" />
            <mxPoint x="2644" y="463.022540378444" as="targetPoint" />
          </mxGeometry>
        </mxCell>
        <mxCell id="Q4PtB8VEEmsm6MJClJGm-300" value="&lt;font style=&quot;font-size: 10px;&quot;&gt;vigencia&lt;/font&gt;" style="ellipse;whiteSpace=wrap;html=1;" parent="1" vertex="1">
          <mxGeometry x="2631" y="441.0002540378444" width="76" height="24" as="geometry" />
        </mxCell>
        <mxCell id="Q4PtB8VEEmsm6MJClJGm-301" value="" style="endArrow=none;html=1;rounded=0;exitX=0.75;exitY=0;exitDx=0;exitDy=0;" parent="1" edge="1">
          <mxGeometry width="50" height="50" relative="1" as="geometry">
            <mxPoint x="2662" y="441.0002540378444" as="sourcePoint" />
            <mxPoint x="2675" y="418.0002540378444" as="targetPoint" />
          </mxGeometry>
        </mxCell>
        <mxCell id="Q4PtB8VEEmsm6MJClJGm-302" value="" style="endArrow=none;html=1;rounded=0;exitX=0.75;exitY=0;exitDx=0;exitDy=0;" parent="1" edge="1">
          <mxGeometry width="50" height="50" relative="1" as="geometry">
            <mxPoint x="2692" y="444.0002540378444" as="sourcePoint" />
            <mxPoint x="2702" y="431.0002540378444" as="targetPoint" />
          </mxGeometry>
        </mxCell>
        <mxCell id="Q4PtB8VEEmsm6MJClJGm-305" value="" style="group" parent="1" vertex="1" connectable="0">
          <mxGeometry x="2673" y="411.00152422706634" width="8" height="28" as="geometry" />
        </mxCell>
        <mxCell id="Q4PtB8VEEmsm6MJClJGm-306" value="" style="ellipse;whiteSpace=wrap;html=1;aspect=fixed;" parent="Q4PtB8VEEmsm6MJClJGm-305" vertex="1">
          <mxGeometry width="8" height="8" as="geometry" />
        </mxCell>
        <mxCell id="Q4PtB8VEEmsm6MJClJGm-307" value="" style="group" parent="1" vertex="1" connectable="0">
          <mxGeometry x="2700" y="424.00152422706634" width="8" height="28" as="geometry" />
        </mxCell>
        <mxCell id="Q4PtB8VEEmsm6MJClJGm-308" value="" style="ellipse;whiteSpace=wrap;html=1;aspect=fixed;" parent="Q4PtB8VEEmsm6MJClJGm-307" vertex="1">
          <mxGeometry width="8" height="8" as="geometry" />
        </mxCell>
        <mxCell id="Q4PtB8VEEmsm6MJClJGm-313" value="&lt;font style=&quot;font-size: 8px;&quot;&gt;fecha_desde&lt;/font&gt;" style="text;html=1;align=center;verticalAlign=middle;resizable=0;points=[];autosize=1;strokeColor=none;fillColor=none;rotation=0;" parent="1" vertex="1">
          <mxGeometry x="2669" y="397.00152422706634" width="80" height="30" as="geometry" />
        </mxCell>
        <mxCell id="Q4PtB8VEEmsm6MJClJGm-314" value="&lt;font style=&quot;font-size: 8px;&quot;&gt;fecha_hasta&lt;/font&gt;" style="text;html=1;align=center;verticalAlign=middle;resizable=0;points=[];autosize=1;strokeColor=none;fillColor=none;rotation=0;" parent="1" vertex="1">
          <mxGeometry x="2697" y="410.00152422706634" width="80" height="30" as="geometry" />
        </mxCell>
        <mxCell id="Q4PtB8VEEmsm6MJClJGm-317" value="&lt;font style=&quot;font-size: 8px;&quot;&gt;costo_mes&lt;/font&gt;" style="text;html=1;align=center;verticalAlign=middle;resizable=0;points=[];autosize=1;strokeColor=none;fillColor=none;rotation=-60;" parent="1" vertex="1">
          <mxGeometry x="2563" y="410.33152422706627" width="70" height="30" as="geometry" />
        </mxCell>
        <mxCell id="Q4PtB8VEEmsm6MJClJGm-330" value="Tarjeta" style="rounded=0;whiteSpace=wrap;html=1;" parent="1" vertex="1">
          <mxGeometry x="2880" y="479.58025403784427" width="160" height="60" as="geometry" />
        </mxCell>
        <mxCell id="Q4PtB8VEEmsm6MJClJGm-331" value="" style="group" parent="1" vertex="1" connectable="0">
          <mxGeometry x="2916.5" y="451.66152422706637" width="8" height="28" as="geometry" />
        </mxCell>
        <mxCell id="Q4PtB8VEEmsm6MJClJGm-332" value="" style="ellipse;whiteSpace=wrap;html=1;aspect=fixed;fillColor=light-dark(#FFFFFF,#FFFFFF);" parent="Q4PtB8VEEmsm6MJClJGm-331" vertex="1">
          <mxGeometry width="8" height="8" as="geometry" />
        </mxCell>
        <mxCell id="Q4PtB8VEEmsm6MJClJGm-333" style="edgeStyle=orthogonalEdgeStyle;rounded=0;orthogonalLoop=1;jettySize=auto;html=1;endArrow=none;startFill=0;" parent="Q4PtB8VEEmsm6MJClJGm-331" edge="1">
          <mxGeometry relative="1" as="geometry">
            <mxPoint x="4" y="28" as="targetPoint" />
            <mxPoint x="4" y="8" as="sourcePoint" />
          </mxGeometry>
        </mxCell>
        <mxCell id="Q4PtB8VEEmsm6MJClJGm-334" value="&lt;font style=&quot;font-size: 8px;&quot;&gt;nro&lt;/font&gt;" style="text;html=1;align=center;verticalAlign=middle;resizable=0;points=[];autosize=1;strokeColor=none;fillColor=none;rotation=-60;" parent="1" vertex="1">
          <mxGeometry x="2902" y="423.7415242270663" width="40" height="30" as="geometry" />
        </mxCell>
        <mxCell id="Q4PtB8VEEmsm6MJClJGm-335" value="" style="group" parent="1" vertex="1" connectable="0">
          <mxGeometry x="2936.5" y="451.1215242270664" width="8" height="28" as="geometry" />
        </mxCell>
        <mxCell id="Q4PtB8VEEmsm6MJClJGm-336" value="" style="ellipse;whiteSpace=wrap;html=1;aspect=fixed;fillColor=light-dark(#FFFFFF,transparent);" parent="Q4PtB8VEEmsm6MJClJGm-335" vertex="1">
          <mxGeometry width="8" height="8" as="geometry" />
        </mxCell>
        <mxCell id="Q4PtB8VEEmsm6MJClJGm-337" style="edgeStyle=orthogonalEdgeStyle;rounded=0;orthogonalLoop=1;jettySize=auto;html=1;endArrow=none;startFill=0;" parent="Q4PtB8VEEmsm6MJClJGm-335" edge="1">
          <mxGeometry relative="1" as="geometry">
            <mxPoint x="4" y="28" as="targetPoint" />
            <mxPoint x="4" y="8" as="sourcePoint" />
          </mxGeometry>
        </mxCell>
        <mxCell id="Q4PtB8VEEmsm6MJClJGm-338" value="&lt;font style=&quot;font-size: 8px;&quot;&gt;cod_seg&lt;/font&gt;" style="text;html=1;align=center;verticalAlign=middle;resizable=0;points=[];autosize=1;strokeColor=none;fillColor=none;rotation=-60;" parent="1" vertex="1">
          <mxGeometry x="2916" y="416.7415242270663" width="60" height="30" as="geometry" />
        </mxCell>
        <mxCell id="Q4PtB8VEEmsm6MJClJGm-343" value="" style="group" parent="1" vertex="1" connectable="0">
          <mxGeometry x="2956" y="451.66152422706637" width="8" height="28" as="geometry" />
        </mxCell>
        <mxCell id="Q4PtB8VEEmsm6MJClJGm-344" value="" style="ellipse;whiteSpace=wrap;html=1;aspect=fixed;fillColor=light-dark(#FFFFFF,transparent);" parent="Q4PtB8VEEmsm6MJClJGm-343" vertex="1">
          <mxGeometry width="8" height="8" as="geometry" />
        </mxCell>
        <mxCell id="Q4PtB8VEEmsm6MJClJGm-345" style="edgeStyle=orthogonalEdgeStyle;rounded=0;orthogonalLoop=1;jettySize=auto;html=1;endArrow=none;startFill=0;" parent="Q4PtB8VEEmsm6MJClJGm-343" edge="1">
          <mxGeometry relative="1" as="geometry">
            <mxPoint x="4" y="28" as="targetPoint" />
            <mxPoint x="4" y="8" as="sourcePoint" />
          </mxGeometry>
        </mxCell>
        <mxCell id="Q4PtB8VEEmsm6MJClJGm-346" value="&lt;font style=&quot;font-size: 8px;&quot;&gt;fecha_venc&lt;/font&gt;" style="text;html=1;align=center;verticalAlign=middle;resizable=0;points=[];autosize=1;strokeColor=none;fillColor=none;rotation=-60;" parent="1" vertex="1">
          <mxGeometry x="2935" y="411.66152422706625" width="70" height="30" as="geometry" />
        </mxCell>
        <mxCell id="Q4PtB8VEEmsm6MJClJGm-348" value="Entidad" style="rounded=0;whiteSpace=wrap;html=1;" parent="1" vertex="1">
          <mxGeometry x="3242" y="416.8802540378442" width="160" height="60" as="geometry" />
        </mxCell>
        <mxCell id="Q4PtB8VEEmsm6MJClJGm-349" value="" style="group" parent="1" vertex="1" connectable="0">
          <mxGeometry x="3316.5" y="388.9615242270663" width="8" height="28" as="geometry" />
        </mxCell>
        <mxCell id="Q4PtB8VEEmsm6MJClJGm-350" value="" style="ellipse;whiteSpace=wrap;html=1;aspect=fixed;fillColor=light-dark(#FFFFFF,#FFFFFF);" parent="Q4PtB8VEEmsm6MJClJGm-349" vertex="1">
          <mxGeometry width="8" height="8" as="geometry" />
        </mxCell>
        <mxCell id="Q4PtB8VEEmsm6MJClJGm-351" style="edgeStyle=orthogonalEdgeStyle;rounded=0;orthogonalLoop=1;jettySize=auto;html=1;endArrow=none;startFill=0;" parent="Q4PtB8VEEmsm6MJClJGm-349" edge="1">
          <mxGeometry relative="1" as="geometry">
            <mxPoint x="4" y="28" as="targetPoint" />
            <mxPoint x="4" y="8" as="sourcePoint" />
          </mxGeometry>
        </mxCell>
        <mxCell id="Q4PtB8VEEmsm6MJClJGm-352" value="&lt;font style=&quot;font-size: 8px;&quot;&gt;nombre&lt;/font&gt;" style="text;html=1;align=center;verticalAlign=middle;resizable=0;points=[];autosize=1;strokeColor=none;fillColor=none;rotation=-60;" parent="1" vertex="1">
          <mxGeometry x="3299" y="355.66152422706625" width="50" height="30" as="geometry" />
        </mxCell>
        <mxCell id="Q4PtB8VEEmsm6MJClJGm-374" value="Banco" style="rounded=0;whiteSpace=wrap;html=1;" parent="1" vertex="1">
          <mxGeometry x="3242" y="557.9202540378443" width="160" height="60" as="geometry" />
        </mxCell>
        <mxCell id="Q4PtB8VEEmsm6MJClJGm-375" value="" style="group" parent="1" vertex="1" connectable="0">
          <mxGeometry x="3316.5" y="530.0015242270664" width="8" height="28" as="geometry" />
        </mxCell>
        <mxCell id="Q4PtB8VEEmsm6MJClJGm-376" value="" style="ellipse;whiteSpace=wrap;html=1;aspect=fixed;fillColor=light-dark(#FFFFFF,#FFFFFF);" parent="Q4PtB8VEEmsm6MJClJGm-375" vertex="1">
          <mxGeometry width="8" height="8" as="geometry" />
        </mxCell>
        <mxCell id="Q4PtB8VEEmsm6MJClJGm-377" style="edgeStyle=orthogonalEdgeStyle;rounded=0;orthogonalLoop=1;jettySize=auto;html=1;endArrow=none;startFill=0;" parent="Q4PtB8VEEmsm6MJClJGm-375" edge="1">
          <mxGeometry relative="1" as="geometry">
            <mxPoint x="4" y="28" as="targetPoint" />
            <mxPoint x="4" y="8" as="sourcePoint" />
          </mxGeometry>
        </mxCell>
        <mxCell id="Q4PtB8VEEmsm6MJClJGm-378" value="&lt;font style=&quot;font-size: 8px;&quot;&gt;nombre&lt;/font&gt;" style="text;html=1;align=center;verticalAlign=middle;resizable=0;points=[];autosize=1;strokeColor=none;fillColor=none;rotation=-60;" parent="1" vertex="1">
          <mxGeometry x="3299" y="495.54152422706636" width="50" height="30" as="geometry" />
        </mxCell>
        <mxCell id="Q4PtB8VEEmsm6MJClJGm-387" value="emitida_por" style="rhombus;whiteSpace=wrap;html=1;" parent="1" vertex="1">
          <mxGeometry x="3102" y="406.6602540378443" width="80" height="80" as="geometry" />
        </mxCell>
        <mxCell id="Q4PtB8VEEmsm6MJClJGm-388" value="asociada" style="rhombus;whiteSpace=wrap;html=1;" parent="1" vertex="1">
          <mxGeometry x="3102" y="547.9202540378443" width="80" height="80" as="geometry" />
        </mxCell>
        <mxCell id="Q4PtB8VEEmsm6MJClJGm-389" value="" style="endArrow=none;html=1;rounded=0;exitX=1;exitY=0.25;exitDx=0;exitDy=0;entryX=0;entryY=0.5;entryDx=0;entryDy=0;" parent="1" source="Q4PtB8VEEmsm6MJClJGm-330" target="Q4PtB8VEEmsm6MJClJGm-387" edge="1">
          <mxGeometry width="50" height="50" relative="1" as="geometry">
            <mxPoint x="3132" y="529.66" as="sourcePoint" />
            <mxPoint x="3182" y="479.65999999999997" as="targetPoint" />
          </mxGeometry>
        </mxCell>
        <mxCell id="Q4PtB8VEEmsm6MJClJGm-390" value="" style="endArrow=none;html=1;rounded=0;exitX=1;exitY=0.75;exitDx=0;exitDy=0;entryX=0;entryY=0.5;entryDx=0;entryDy=0;" parent="1" source="Q4PtB8VEEmsm6MJClJGm-330" target="Q4PtB8VEEmsm6MJClJGm-388" edge="1">
          <mxGeometry width="50" height="50" relative="1" as="geometry">
            <mxPoint x="3132" y="529.66" as="sourcePoint" />
            <mxPoint x="3182" y="479.65999999999997" as="targetPoint" />
          </mxGeometry>
        </mxCell>
        <mxCell id="Q4PtB8VEEmsm6MJClJGm-391" value="" style="endArrow=none;html=1;rounded=0;exitX=1;exitY=0.5;exitDx=0;exitDy=0;entryX=0;entryY=0.5;entryDx=0;entryDy=0;" parent="1" source="Q4PtB8VEEmsm6MJClJGm-387" target="Q4PtB8VEEmsm6MJClJGm-348" edge="1">
          <mxGeometry width="50" height="50" relative="1" as="geometry">
            <mxPoint x="3132" y="529.66" as="sourcePoint" />
            <mxPoint x="3182" y="479.65999999999997" as="targetPoint" />
          </mxGeometry>
        </mxCell>
        <mxCell id="Q4PtB8VEEmsm6MJClJGm-392" value="" style="endArrow=none;html=1;rounded=0;exitX=1;exitY=0.5;exitDx=0;exitDy=0;entryX=0;entryY=0.5;entryDx=0;entryDy=0;" parent="1" source="Q4PtB8VEEmsm6MJClJGm-388" target="Q4PtB8VEEmsm6MJClJGm-374" edge="1">
          <mxGeometry width="50" height="50" relative="1" as="geometry">
            <mxPoint x="3152" y="589.66" as="sourcePoint" />
            <mxPoint x="3202" y="539.66" as="targetPoint" />
          </mxGeometry>
        </mxCell>
        <mxCell id="Q4PtB8VEEmsm6MJClJGm-393" value="(1,1)" style="text;html=1;align=center;verticalAlign=middle;resizable=0;points=[];autosize=1;strokeColor=none;fillColor=none;" parent="1" vertex="1">
          <mxGeometry x="3027" y="446.65999999999997" width="60" height="30" as="geometry" />
        </mxCell>
        <mxCell id="Q4PtB8VEEmsm6MJClJGm-394" value="(1,1)" style="text;html=1;align=center;verticalAlign=middle;resizable=0;points=[];autosize=1;strokeColor=none;fillColor=none;" parent="1" vertex="1">
          <mxGeometry x="3042" y="517.92" width="60" height="30" as="geometry" />
        </mxCell>
        <mxCell id="Q4PtB8VEEmsm6MJClJGm-395" value="(0,n)" style="text;html=1;align=center;verticalAlign=middle;resizable=0;points=[];autosize=1;strokeColor=none;fillColor=none;" parent="1" vertex="1">
          <mxGeometry x="3182" y="416.9599999999999" width="60" height="30" as="geometry" />
        </mxCell>
        <mxCell id="Q4PtB8VEEmsm6MJClJGm-396" value="(0,n)" style="text;html=1;align=center;verticalAlign=middle;resizable=0;points=[];autosize=1;strokeColor=none;fillColor=none;" parent="1" vertex="1">
          <mxGeometry x="3182" y="556.12" width="60" height="30" as="geometry" />
        </mxCell>
        <mxCell id="Q4PtB8VEEmsm6MJClJGm-398" style="edgeStyle=orthogonalEdgeStyle;rounded=0;orthogonalLoop=1;jettySize=auto;html=1;entryX=0;entryY=0.5;entryDx=0;entryDy=0;endArrow=none;startFill=0;" parent="1" source="Q4PtB8VEEmsm6MJClJGm-397" target="Q4PtB8VEEmsm6MJClJGm-330" edge="1">
          <mxGeometry relative="1" as="geometry" />
        </mxCell>
        <mxCell id="Q4PtB8VEEmsm6MJClJGm-397" value="pol_tarj" style="rhombus;whiteSpace=wrap;html=1;" parent="1" vertex="1">
          <mxGeometry x="2740" y="469.54" width="80" height="80" as="geometry" />
        </mxCell>
        <mxCell id="Q4PtB8VEEmsm6MJClJGm-400" value="(0,1)" style="text;html=1;align=center;verticalAlign=middle;resizable=0;points=[];autosize=1;strokeColor=none;fillColor=none;" parent="1" vertex="1">
          <mxGeometry x="2673" y="476.65999999999997" width="60" height="30" as="geometry" />
        </mxCell>
        <mxCell id="Q4PtB8VEEmsm6MJClJGm-401" value="(0,n)" style="text;html=1;align=center;verticalAlign=middle;resizable=0;points=[];autosize=1;strokeColor=none;fillColor=none;" parent="1" vertex="1">
          <mxGeometry x="2820" y="479.12" width="60" height="30" as="geometry" />
        </mxCell>
        <mxCell id="Q4PtB8VEEmsm6MJClJGm-405" style="edgeStyle=orthogonalEdgeStyle;rounded=0;orthogonalLoop=1;jettySize=auto;html=1;endArrow=none;startFill=0;" parent="1" source="Q4PtB8VEEmsm6MJClJGm-402" edge="1">
          <mxGeometry relative="1" as="geometry">
            <mxPoint x="2540" y="540" as="targetPoint" />
          </mxGeometry>
        </mxCell>
        <mxCell id="Q4PtB8VEEmsm6MJClJGm-402" value="renovacion" style="rhombus;whiteSpace=wrap;html=1;" parent="1" vertex="1">
          <mxGeometry x="2559" y="559.8000000000001" width="80" height="80" as="geometry" />
        </mxCell>
        <mxCell id="Q4PtB8VEEmsm6MJClJGm-403" value="(0,1)" style="text;html=1;align=center;verticalAlign=middle;resizable=0;points=[];autosize=1;strokeColor=none;fillColor=none;" parent="1" vertex="1">
          <mxGeometry x="2610" y="537.9999999999999" width="60" height="30" as="geometry" />
        </mxCell>
        <mxCell id="Q4PtB8VEEmsm6MJClJGm-408" value="" style="endArrow=none;html=1;rounded=0;exitX=1;exitY=0.5;exitDx=0;exitDy=0;" parent="1" source="Q4PtB8VEEmsm6MJClJGm-402" edge="1">
          <mxGeometry width="50" height="50" relative="1" as="geometry">
            <mxPoint x="2639" y="601" as="sourcePoint" />
            <mxPoint x="2660" y="540" as="targetPoint" />
            <Array as="points">
              <mxPoint x="2660" y="600" />
            </Array>
          </mxGeometry>
        </mxCell>
        <mxCell id="Q4PtB8VEEmsm6MJClJGm-409" value="(0,1)" style="text;html=1;align=center;verticalAlign=middle;resizable=0;points=[];autosize=1;strokeColor=none;fillColor=none;" parent="1" vertex="1">
          <mxGeometry x="2530" y="537.9999999999999" width="60" height="30" as="geometry" />
        </mxCell>
        <mxCell id="Q4PtB8VEEmsm6MJClJGm-412" value="asociada" style="rhombus;whiteSpace=wrap;html=1;" parent="1" vertex="1">
          <mxGeometry x="2344" y="366.96" width="80" height="80" as="geometry" />
        </mxCell>
        <mxCell id="Q4PtB8VEEmsm6MJClJGm-414" value="(0,n)" style="text;html=1;align=center;verticalAlign=middle;resizable=0;points=[];autosize=1;strokeColor=none;fillColor=none;" parent="1" vertex="1">
          <mxGeometry x="2380" y="320" width="60" height="30" as="geometry" />
        </mxCell>
        <mxCell id="Q4PtB8VEEmsm6MJClJGm-415" value="(1,1)" style="text;html=1;align=center;verticalAlign=middle;resizable=0;points=[];autosize=1;strokeColor=none;fillColor=none;" parent="1" vertex="1">
          <mxGeometry x="2440" y="465" width="60" height="30" as="geometry" />
        </mxCell>
        <mxCell id="Q4PtB8VEEmsm6MJClJGm-417" value="" style="curved=1;endArrow=none;html=1;rounded=0;startFill=0;" parent="1" edge="1">
          <mxGeometry width="50" height="50" relative="1" as="geometry">
            <mxPoint x="2384" y="350" as="sourcePoint" />
            <mxPoint x="2540" y="470" as="targetPoint" />
            <Array as="points">
              <mxPoint x="2420" y="370" />
              <mxPoint x="2440" y="390" />
              <mxPoint x="2460" y="450" />
              <mxPoint x="2500" y="470" />
            </Array>
          </mxGeometry>
        </mxCell>
        <mxCell id="Q4PtB8VEEmsm6MJClJGm-418" value="" style="group" parent="1" vertex="1" connectable="0">
          <mxGeometry x="2535" y="466.0015242270663" width="8" height="28" as="geometry" />
        </mxCell>
        <mxCell id="Q4PtB8VEEmsm6MJClJGm-419" value="" style="ellipse;whiteSpace=wrap;html=1;aspect=fixed;fillColor=light-dark(#FFFFFF,#FFFFFF);" parent="Q4PtB8VEEmsm6MJClJGm-418" vertex="1">
          <mxGeometry width="8" height="8" as="geometry" />
        </mxCell>
        <mxCell id="Q4PtB8VEEmsm6MJClJGm-421" value="" style="endArrow=none;html=1;rounded=0;entryX=0;entryY=0.5;entryDx=0;entryDy=0;" parent="1" target="Q4PtB8VEEmsm6MJClJGm-422" edge="1">
          <mxGeometry width="50" height="50" relative="1" as="geometry">
            <mxPoint x="2610" y="479.5" as="sourcePoint" />
            <mxPoint x="2640" y="380" as="targetPoint" />
          </mxGeometry>
        </mxCell>
        <mxCell id="Q4PtB8VEEmsm6MJClJGm-438" style="edgeStyle=orthogonalEdgeStyle;rounded=0;orthogonalLoop=1;jettySize=auto;html=1;entryX=0;entryY=0.5;entryDx=0;entryDy=0;endArrow=none;startFill=0;" parent="1" source="Q4PtB8VEEmsm6MJClJGm-422" target="Q4PtB8VEEmsm6MJClJGm-423" edge="1">
          <mxGeometry relative="1" as="geometry" />
        </mxCell>
        <mxCell id="Q4PtB8VEEmsm6MJClJGm-422" value="tiene" style="rhombus;whiteSpace=wrap;html=1;" parent="1" vertex="1">
          <mxGeometry x="2681" y="296" width="80" height="80" as="geometry" />
        </mxCell>
        <mxCell id="Q4PtB8VEEmsm6MJClJGm-423" value="Cobertura" style="rounded=0;whiteSpace=wrap;html=1;" parent="1" vertex="1">
          <mxGeometry x="2830" y="305.9602540378443" width="160" height="60" as="geometry" />
        </mxCell>
        <mxCell id="Q4PtB8VEEmsm6MJClJGm-425" value="" style="group" parent="1" vertex="1" connectable="0">
          <mxGeometry x="2887.5" y="277.9215242270663" width="8" height="28" as="geometry" />
        </mxCell>
        <mxCell id="Q4PtB8VEEmsm6MJClJGm-426" value="" style="ellipse;whiteSpace=wrap;html=1;aspect=fixed;fillColor=light-dark(#FFFFFF,#FFFFFF);" parent="Q4PtB8VEEmsm6MJClJGm-425" vertex="1">
          <mxGeometry width="8" height="8" as="geometry" />
        </mxCell>
        <mxCell id="Q4PtB8VEEmsm6MJClJGm-427" style="edgeStyle=orthogonalEdgeStyle;rounded=0;orthogonalLoop=1;jettySize=auto;html=1;endArrow=none;startFill=0;" parent="Q4PtB8VEEmsm6MJClJGm-425" edge="1">
          <mxGeometry relative="1" as="geometry">
            <mxPoint x="4" y="28" as="targetPoint" />
            <mxPoint x="4" y="8" as="sourcePoint" />
          </mxGeometry>
        </mxCell>
        <mxCell id="Q4PtB8VEEmsm6MJClJGm-428" value="&lt;font style=&quot;font-size: 8px;&quot;&gt;nombre&lt;/font&gt;" style="text;html=1;align=center;verticalAlign=middle;resizable=0;points=[];autosize=1;strokeColor=none;fillColor=none;rotation=-60;" parent="1" vertex="1">
          <mxGeometry x="2871" y="243.00152422706623" width="50" height="30" as="geometry" />
        </mxCell>
        <mxCell id="Q4PtB8VEEmsm6MJClJGm-429" value="" style="group" parent="1" vertex="1" connectable="0">
          <mxGeometry x="2906.5" y="277.9215242270663" width="8" height="28" as="geometry" />
        </mxCell>
        <mxCell id="Q4PtB8VEEmsm6MJClJGm-430" value="" style="ellipse;whiteSpace=wrap;html=1;aspect=fixed;" parent="Q4PtB8VEEmsm6MJClJGm-429" vertex="1">
          <mxGeometry width="8" height="8" as="geometry" />
        </mxCell>
        <mxCell id="Q4PtB8VEEmsm6MJClJGm-431" style="edgeStyle=orthogonalEdgeStyle;rounded=0;orthogonalLoop=1;jettySize=auto;html=1;endArrow=none;startFill=0;" parent="Q4PtB8VEEmsm6MJClJGm-429" edge="1">
          <mxGeometry relative="1" as="geometry">
            <mxPoint x="4" y="28" as="targetPoint" />
            <mxPoint x="4" y="8" as="sourcePoint" />
          </mxGeometry>
        </mxCell>
        <mxCell id="Q4PtB8VEEmsm6MJClJGm-432" value="&lt;font style=&quot;font-size: 8px;&quot;&gt;descrip_cobertura&lt;/font&gt;" style="text;html=1;align=center;verticalAlign=middle;resizable=0;points=[];autosize=1;strokeColor=none;fillColor=none;rotation=-60;" parent="1" vertex="1">
          <mxGeometry x="2872" y="221.00152422706623" width="110" height="30" as="geometry" />
        </mxCell>
        <mxCell id="Q4PtB8VEEmsm6MJClJGm-433" value="" style="group" parent="1" vertex="1" connectable="0">
          <mxGeometry x="2926.5" y="277.9215242270663" width="8" height="28" as="geometry" />
        </mxCell>
        <mxCell id="Q4PtB8VEEmsm6MJClJGm-434" value="" style="ellipse;whiteSpace=wrap;html=1;aspect=fixed;" parent="Q4PtB8VEEmsm6MJClJGm-433" vertex="1">
          <mxGeometry width="8" height="8" as="geometry" />
        </mxCell>
        <mxCell id="Q4PtB8VEEmsm6MJClJGm-435" style="edgeStyle=orthogonalEdgeStyle;rounded=0;orthogonalLoop=1;jettySize=auto;html=1;endArrow=none;startFill=0;" parent="Q4PtB8VEEmsm6MJClJGm-433" edge="1">
          <mxGeometry relative="1" as="geometry">
            <mxPoint x="4" y="28" as="targetPoint" />
            <mxPoint x="4" y="8" as="sourcePoint" />
          </mxGeometry>
        </mxCell>
        <mxCell id="Q4PtB8VEEmsm6MJClJGm-437" value="&lt;font style=&quot;font-size: 8px;&quot;&gt;descrip_clausulas&lt;/font&gt;" style="text;html=1;align=center;verticalAlign=middle;resizable=0;points=[];autosize=1;strokeColor=none;fillColor=none;rotation=-60;" parent="1" vertex="1">
          <mxGeometry x="2893" y="221.00152422706623" width="110" height="30" as="geometry" />
        </mxCell>
        <mxCell id="Q4PtB8VEEmsm6MJClJGm-439" value="(1,1)" style="text;html=1;align=center;verticalAlign=middle;resizable=0;points=[];autosize=1;strokeColor=none;fillColor=none;" parent="1" vertex="1">
          <mxGeometry x="2621" y="335.96" width="60" height="30" as="geometry" />
        </mxCell>
        <mxCell id="Q4PtB8VEEmsm6MJClJGm-440" value="(0,n)" style="text;html=1;align=center;verticalAlign=middle;resizable=0;points=[];autosize=1;strokeColor=none;fillColor=none;" parent="1" vertex="1">
          <mxGeometry x="2770" y="305.96" width="60" height="30" as="geometry" />
        </mxCell>
        <mxCell id="Q4PtB8VEEmsm6MJClJGm-442" value="renovacion" style="rhombus;whiteSpace=wrap;html=1;" parent="1" vertex="1">
          <mxGeometry x="2440" y="602.8000000000001" width="80" height="80" as="geometry" />
        </mxCell>
        <mxCell id="Q4PtB8VEEmsm6MJClJGm-444" value="Cupon_de_pago" style="rounded=0;whiteSpace=wrap;html=1;" parent="1" vertex="1">
          <mxGeometry x="2457" y="770.0002540378443" width="160" height="60" as="geometry" />
        </mxCell>
        <mxCell id="Q4PtB8VEEmsm6MJClJGm-445" value="" style="group" parent="1" vertex="1" connectable="0">
          <mxGeometry x="2512" y="742.1815242270663" width="8" height="28" as="geometry" />
        </mxCell>
        <mxCell id="Q4PtB8VEEmsm6MJClJGm-446" value="" style="ellipse;whiteSpace=wrap;html=1;aspect=fixed;fillColor=light-dark(#FFFFFF,transparent);" parent="Q4PtB8VEEmsm6MJClJGm-445" vertex="1">
          <mxGeometry width="8" height="8" as="geometry" />
        </mxCell>
        <mxCell id="Q4PtB8VEEmsm6MJClJGm-447" style="edgeStyle=orthogonalEdgeStyle;rounded=0;orthogonalLoop=1;jettySize=auto;html=1;endArrow=none;startFill=0;" parent="Q4PtB8VEEmsm6MJClJGm-445" edge="1">
          <mxGeometry relative="1" as="geometry">
            <mxPoint x="4" y="28" as="targetPoint" />
            <mxPoint x="4" y="8" as="sourcePoint" />
          </mxGeometry>
        </mxCell>
        <mxCell id="Q4PtB8VEEmsm6MJClJGm-448" value="&lt;font style=&quot;font-size: 8px;&quot;&gt;monto&lt;/font&gt;" style="text;html=1;align=center;verticalAlign=middle;resizable=0;points=[];autosize=1;strokeColor=none;fillColor=none;rotation=-60;" parent="1" vertex="1">
          <mxGeometry x="2496.5" y="710.2615242270663" width="50" height="30" as="geometry" />
        </mxCell>
        <mxCell id="Q4PtB8VEEmsm6MJClJGm-449" value="" style="group" parent="1" vertex="1" connectable="0">
          <mxGeometry x="2531" y="742.1815242270663" width="8" height="28" as="geometry" />
        </mxCell>
        <mxCell id="Q4PtB8VEEmsm6MJClJGm-450" value="" style="ellipse;whiteSpace=wrap;html=1;aspect=fixed;" parent="Q4PtB8VEEmsm6MJClJGm-449" vertex="1">
          <mxGeometry width="8" height="8" as="geometry" />
        </mxCell>
        <mxCell id="Q4PtB8VEEmsm6MJClJGm-451" style="edgeStyle=orthogonalEdgeStyle;rounded=0;orthogonalLoop=1;jettySize=auto;html=1;endArrow=none;startFill=0;" parent="Q4PtB8VEEmsm6MJClJGm-449" edge="1">
          <mxGeometry relative="1" as="geometry">
            <mxPoint x="4" y="28" as="targetPoint" />
            <mxPoint x="4" y="8" as="sourcePoint" />
          </mxGeometry>
        </mxCell>
        <mxCell id="Q4PtB8VEEmsm6MJClJGm-452" value="&lt;font style=&quot;font-size: 8px;&quot;&gt;fecha_venc&lt;/font&gt;" style="text;html=1;align=center;verticalAlign=middle;resizable=0;points=[];autosize=1;strokeColor=none;fillColor=none;rotation=-60;" parent="1" vertex="1">
          <mxGeometry x="2510" y="699.0015242270663" width="70" height="30" as="geometry" />
        </mxCell>
        <mxCell id="Q4PtB8VEEmsm6MJClJGm-453" value="" style="group" parent="1" vertex="1" connectable="0">
          <mxGeometry x="2551" y="742.1815242270663" width="8" height="28" as="geometry" />
        </mxCell>
        <mxCell id="Q4PtB8VEEmsm6MJClJGm-454" value="" style="ellipse;whiteSpace=wrap;html=1;aspect=fixed;" parent="Q4PtB8VEEmsm6MJClJGm-453" vertex="1">
          <mxGeometry width="8" height="8" as="geometry" />
        </mxCell>
        <mxCell id="Q4PtB8VEEmsm6MJClJGm-455" style="edgeStyle=orthogonalEdgeStyle;rounded=0;orthogonalLoop=1;jettySize=auto;html=1;endArrow=none;startFill=0;" parent="Q4PtB8VEEmsm6MJClJGm-453" edge="1">
          <mxGeometry relative="1" as="geometry">
            <mxPoint x="4" y="28" as="targetPoint" />
            <mxPoint x="4" y="8" as="sourcePoint" />
          </mxGeometry>
        </mxCell>
        <mxCell id="Q4PtB8VEEmsm6MJClJGm-456" value="&lt;font style=&quot;font-size: 8px;&quot;&gt;fecha_pago(0,1)&lt;/font&gt;" style="text;html=1;align=center;verticalAlign=middle;resizable=0;points=[];autosize=1;strokeColor=none;fillColor=none;rotation=-60;" parent="1" vertex="1">
          <mxGeometry x="2521" y="688.0015242270663" width="100" height="30" as="geometry" />
        </mxCell>
        <mxCell id="Q4PtB8VEEmsm6MJClJGm-457" value="(1,n)" style="text;html=1;align=center;verticalAlign=middle;resizable=0;points=[];autosize=1;strokeColor=none;fillColor=none;" parent="1" vertex="1">
          <mxGeometry x="2424" y="572.9199999999998" width="60" height="30" as="geometry" />
        </mxCell>
        <mxCell id="Q4PtB8VEEmsm6MJClJGm-458" value="(1,1)" style="text;html=1;align=center;verticalAlign=middle;resizable=0;points=[];autosize=1;strokeColor=none;fillColor=none;" parent="1" vertex="1">
          <mxGeometry x="2424" y="682.7999999999998" width="60" height="30" as="geometry" />
        </mxCell>
        <mxCell id="Q4PtB8VEEmsm6MJClJGm-459" value="&lt;div&gt;Siniestro&lt;/div&gt;" style="rounded=0;whiteSpace=wrap;html=1;" parent="1" vertex="1">
          <mxGeometry x="2856" y="679.8002540378443" width="160" height="60" as="geometry" />
        </mxCell>
        <mxCell id="Q4PtB8VEEmsm6MJClJGm-460" value="" style="group" parent="1" vertex="1" connectable="0">
          <mxGeometry x="2921" y="651.8015242270662" width="8" height="28" as="geometry" />
        </mxCell>
        <mxCell id="Q4PtB8VEEmsm6MJClJGm-461" value="" style="ellipse;whiteSpace=wrap;html=1;aspect=fixed;fillColor=light-dark(#FFFFFF,transparent);" parent="Q4PtB8VEEmsm6MJClJGm-460" vertex="1">
          <mxGeometry width="8" height="8" as="geometry" />
        </mxCell>
        <mxCell id="Q4PtB8VEEmsm6MJClJGm-462" style="edgeStyle=orthogonalEdgeStyle;rounded=0;orthogonalLoop=1;jettySize=auto;html=1;endArrow=none;startFill=0;" parent="Q4PtB8VEEmsm6MJClJGm-460" edge="1">
          <mxGeometry relative="1" as="geometry">
            <mxPoint x="4" y="28" as="targetPoint" />
            <mxPoint x="4" y="8" as="sourcePoint" />
          </mxGeometry>
        </mxCell>
        <mxCell id="Q4PtB8VEEmsm6MJClJGm-463" value="" style="group" parent="1" vertex="1" connectable="0">
          <mxGeometry x="2940" y="651.8015242270662" width="8" height="28" as="geometry" />
        </mxCell>
        <mxCell id="Q4PtB8VEEmsm6MJClJGm-464" value="" style="ellipse;whiteSpace=wrap;html=1;aspect=fixed;" parent="Q4PtB8VEEmsm6MJClJGm-463" vertex="1">
          <mxGeometry width="8" height="8" as="geometry" />
        </mxCell>
        <mxCell id="Q4PtB8VEEmsm6MJClJGm-465" style="edgeStyle=orthogonalEdgeStyle;rounded=0;orthogonalLoop=1;jettySize=auto;html=1;endArrow=none;startFill=0;" parent="Q4PtB8VEEmsm6MJClJGm-463" edge="1">
          <mxGeometry relative="1" as="geometry">
            <mxPoint x="4" y="28" as="targetPoint" />
            <mxPoint x="4" y="8" as="sourcePoint" />
          </mxGeometry>
        </mxCell>
        <mxCell id="Q4PtB8VEEmsm6MJClJGm-466" value="&lt;font style=&quot;font-size: 8px;&quot;&gt;descripcion&lt;/font&gt;" style="text;html=1;align=center;verticalAlign=middle;resizable=0;points=[];autosize=1;strokeColor=none;fillColor=none;rotation=-60;" parent="1" vertex="1">
          <mxGeometry x="2914" y="606.8015242270661" width="80" height="30" as="geometry" />
        </mxCell>
        <mxCell id="Q4PtB8VEEmsm6MJClJGm-467" value="" style="group" parent="1" vertex="1" connectable="0">
          <mxGeometry x="2960" y="651.8015242270662" width="8" height="28" as="geometry" />
        </mxCell>
        <mxCell id="Q4PtB8VEEmsm6MJClJGm-468" value="" style="ellipse;whiteSpace=wrap;html=1;aspect=fixed;" parent="Q4PtB8VEEmsm6MJClJGm-467" vertex="1">
          <mxGeometry width="8" height="8" as="geometry" />
        </mxCell>
        <mxCell id="Q4PtB8VEEmsm6MJClJGm-469" style="edgeStyle=orthogonalEdgeStyle;rounded=0;orthogonalLoop=1;jettySize=auto;html=1;endArrow=none;startFill=0;" parent="Q4PtB8VEEmsm6MJClJGm-467" edge="1">
          <mxGeometry relative="1" as="geometry">
            <mxPoint x="4" y="28" as="targetPoint" />
            <mxPoint x="4" y="8" as="sourcePoint" />
          </mxGeometry>
        </mxCell>
        <mxCell id="Q4PtB8VEEmsm6MJClJGm-470" value="&lt;font style=&quot;font-size: 8px;&quot;&gt;contacto_3eros(0,1)&lt;/font&gt;" style="text;html=1;align=center;verticalAlign=middle;resizable=0;points=[];autosize=1;strokeColor=none;fillColor=none;rotation=-60;" parent="1" vertex="1">
          <mxGeometry x="2930" y="593.8015242270661" width="110" height="30" as="geometry" />
        </mxCell>
        <mxCell id="Q4PtB8VEEmsm6MJClJGm-471" value="&lt;font style=&quot;font-size: 8px;&quot;&gt;fecha&lt;/font&gt;" style="text;html=1;align=center;verticalAlign=middle;resizable=0;points=[];autosize=1;strokeColor=none;fillColor=none;rotation=-60;" parent="1" vertex="1">
          <mxGeometry x="2904" y="619.8015242270661" width="50" height="30" as="geometry" />
        </mxCell>
        <mxCell id="Q4PtB8VEEmsm6MJClJGm-476" style="edgeStyle=orthogonalEdgeStyle;rounded=0;orthogonalLoop=1;jettySize=auto;html=1;entryX=0;entryY=0.5;entryDx=0;entryDy=0;endArrow=none;startFill=0;" parent="1" source="Q4PtB8VEEmsm6MJClJGm-472" target="Q4PtB8VEEmsm6MJClJGm-459" edge="1">
          <mxGeometry relative="1" as="geometry" />
        </mxCell>
        <mxCell id="Q4PtB8VEEmsm6MJClJGm-472" value="pol_tarj" style="rhombus;whiteSpace=wrap;html=1;" parent="1" vertex="1">
          <mxGeometry x="2680" y="670" width="80" height="80" as="geometry" />
        </mxCell>
        <mxCell id="Q4PtB8VEEmsm6MJClJGm-474" style="edgeStyle=orthogonalEdgeStyle;rounded=0;orthogonalLoop=1;jettySize=auto;html=1;entryX=0.146;entryY=0;entryDx=0;entryDy=0;entryPerimeter=0;endArrow=none;startFill=0;" parent="1" source="Q4PtB8VEEmsm6MJClJGm-442" target="Q4PtB8VEEmsm6MJClJGm-444" edge="1">
          <mxGeometry relative="1" as="geometry" />
        </mxCell>
        <mxCell id="Q4PtB8VEEmsm6MJClJGm-477" value="(1,n)" style="text;html=1;align=center;verticalAlign=middle;resizable=0;points=[];autosize=1;strokeColor=none;fillColor=none;" parent="1" vertex="1">
          <mxGeometry x="2710" y="539.58" width="60" height="30" as="geometry" />
        </mxCell>
        <mxCell id="Q4PtB8VEEmsm6MJClJGm-478" value="(1,1)" style="text;html=1;align=center;verticalAlign=middle;resizable=0;points=[];autosize=1;strokeColor=none;fillColor=none;" parent="1" vertex="1">
          <mxGeometry x="2796" y="678.8" width="60" height="30" as="geometry" />
        </mxCell>
        <mxCell id="Q4PtB8VEEmsm6MJClJGm-479" value="genera" style="rhombus;whiteSpace=wrap;html=1;" parent="1" vertex="1">
          <mxGeometry x="2288" y="469.5400000000001" width="80" height="80" as="geometry" />
        </mxCell>
        <mxCell id="Q4PtB8VEEmsm6MJClJGm-482" value="(1,n)" style="text;html=1;align=center;verticalAlign=middle;resizable=0;points=[];autosize=1;strokeColor=none;fillColor=none;" parent="1" vertex="1">
          <mxGeometry x="2210" y="479.7902540378443" width="60" height="30" as="geometry" />
        </mxCell>
        <mxCell id="Q4PtB8VEEmsm6MJClJGm-483" value="(1,1)" style="text;html=1;align=center;verticalAlign=middle;resizable=0;points=[];autosize=1;strokeColor=none;fillColor=none;" parent="1" vertex="1">
          <mxGeometry x="2370" y="506.6602540378443" width="60" height="30" as="geometry" />
        </mxCell>
        <mxCell id="fgcYRdTwhImjbAuJwy6w-1" value="" style="curved=1;endArrow=none;html=1;rounded=0;startFill=0;" parent="1" edge="1">
          <mxGeometry width="50" height="50" relative="1" as="geometry">
            <mxPoint x="2480" y="550" as="sourcePoint" />
            <mxPoint x="2570" y="760" as="targetPoint" />
            <Array as="points">
              <mxPoint x="2400" y="560" />
              <mxPoint x="2430" y="730" />
              <mxPoint x="2470" y="760" />
            </Array>
          </mxGeometry>
        </mxCell>
        <mxCell id="fgcYRdTwhImjbAuJwy6w-3" value="" style="ellipse;whiteSpace=wrap;html=1;aspect=fixed;fillColor=light-dark(#FFFFFF,#FFFFFF);" parent="1" vertex="1">
          <mxGeometry x="2568" y="756.0015242270663" width="8" height="8" as="geometry" />
        </mxCell>
        <mxCell id="fgcYRdTwhImjbAuJwy6w-4" value="" style="curved=1;endArrow=none;html=1;rounded=0;startFill=0;" parent="1" edge="1">
          <mxGeometry width="50" height="50" relative="1" as="geometry">
            <mxPoint x="2720" y="579" as="sourcePoint" />
            <mxPoint x="2989" y="670" as="targetPoint" />
            <Array as="points">
              <mxPoint x="2780" y="630" />
              <mxPoint x="2850" y="660" />
              <mxPoint x="2889" y="670" />
            </Array>
          </mxGeometry>
        </mxCell>
        <mxCell id="fgcYRdTwhImjbAuJwy6w-6" value="" style="ellipse;whiteSpace=wrap;html=1;aspect=fixed;fillColor=light-dark(#FFFFFF,#FFFFFF);" parent="1" vertex="1">
          <mxGeometry x="2987" y="666.0015242270663" width="8" height="8" as="geometry" />
        </mxCell>
      </root>
    </mxGraphModel>
  </diagram>
</mxfile>
